<mxfile host="app.diagrams.net" modified="2021-09-14T01:11:44.813Z" agent="5.0 (Windows NT 10.0; Win64; x64) AppleWebKit/537.36 (KHTML, like Gecko) Chrome/93.0.4577.63 Safari/537.36 Edg/93.0.961.44" etag="K6VqFKjjASsrfTBdtiXt" version="15.0.6" type="github">
  <diagram id="EJiLtyP6GMVUF1vjK_ow" name="Page-1">
    <mxGraphModel dx="813" dy="454" grid="1" gridSize="10" guides="1" tooltips="1" connect="1" arrows="1" fold="1" page="1" pageScale="1" pageWidth="827" pageHeight="1169" math="0" shadow="0">
      <root>
        <mxCell id="0" />
        <mxCell id="1" parent="0" />
        <mxCell id="SQnH5C2QO_s_aApPNkvD-14" value="" style="rounded=1;whiteSpace=wrap;html=1;dashed=1;strokeWidth=0.5;" vertex="1" parent="1">
          <mxGeometry x="267.03" y="210" width="360" height="60" as="geometry" />
        </mxCell>
        <mxCell id="SQnH5C2QO_s_aApPNkvD-15" value="" style="rounded=1;whiteSpace=wrap;html=1;dashed=1;strokeWidth=0.5;" vertex="1" parent="1">
          <mxGeometry x="267.03" y="55" width="360" height="135" as="geometry" />
        </mxCell>
        <mxCell id="SQnH5C2QO_s_aApPNkvD-1" value="" style="endArrow=none;dashed=1;html=1;dashPattern=1 3;strokeWidth=2;" edge="1" parent="1">
          <mxGeometry width="50" height="50" relative="1" as="geometry">
            <mxPoint x="260" y="284" as="sourcePoint" />
            <mxPoint x="660" y="284" as="targetPoint" />
          </mxGeometry>
        </mxCell>
        <mxCell id="SQnH5C2QO_s_aApPNkvD-2" value="VM" style="text;html=1;align=center;verticalAlign=middle;resizable=0;points=[];autosize=1;strokeColor=none;fillColor=none;" vertex="1" parent="1">
          <mxGeometry x="215" y="230" width="30" height="20" as="geometry" />
        </mxCell>
        <mxCell id="SQnH5C2QO_s_aApPNkvD-3" value="HOST" style="text;html=1;align=center;verticalAlign=middle;resizable=0;points=[];autosize=1;strokeColor=none;fillColor=none;" vertex="1" parent="1">
          <mxGeometry x="205" y="320" width="50" height="20" as="geometry" />
        </mxCell>
        <mxCell id="SQnH5C2QO_s_aApPNkvD-5" value="RNIC" style="rounded=1;whiteSpace=wrap;html=1;" vertex="1" parent="1">
          <mxGeometry x="328.03" y="310" width="70" height="30" as="geometry" />
        </mxCell>
        <mxCell id="SQnH5C2QO_s_aApPNkvD-6" value="N2 dev" style="rounded=1;whiteSpace=wrap;html=1;" vertex="1" parent="1">
          <mxGeometry x="508.13" y="310" width="70" height="30" as="geometry" />
        </mxCell>
        <mxCell id="SQnH5C2QO_s_aApPNkvD-7" value="APP" style="rounded=1;whiteSpace=wrap;html=1;" vertex="1" parent="1">
          <mxGeometry x="317.03" y="115" width="92" height="30" as="geometry" />
        </mxCell>
        <mxCell id="SQnH5C2QO_s_aApPNkvD-8" value="N2 dev driver" style="rounded=1;whiteSpace=wrap;html=1;" vertex="1" parent="1">
          <mxGeometry x="501.63" y="135" width="83" height="25" as="geometry" />
        </mxCell>
        <mxCell id="SQnH5C2QO_s_aApPNkvD-9" value="mTCP" style="rounded=1;whiteSpace=wrap;html=1;" vertex="1" parent="1">
          <mxGeometry x="484.07" y="95" width="118.13" height="20" as="geometry" />
        </mxCell>
        <mxCell id="SQnH5C2QO_s_aApPNkvD-12" value="DPDK" style="rounded=1;whiteSpace=wrap;html=1;" vertex="1" parent="1">
          <mxGeometry x="490" y="115" width="106.25" height="20" as="geometry" />
        </mxCell>
        <mxCell id="SQnH5C2QO_s_aApPNkvD-13" value="iwarp stack" style="rounded=1;whiteSpace=wrap;html=1;" vertex="1" parent="1">
          <mxGeometry x="476.09999999999997" y="75" width="134.06" height="20" as="geometry" />
        </mxCell>
        <mxCell id="SQnH5C2QO_s_aApPNkvD-18" value="kernel" style="text;html=1;align=center;verticalAlign=middle;resizable=0;points=[];autosize=1;strokeColor=none;fillColor=none;" vertex="1" parent="1">
          <mxGeometry x="267.03" y="210" width="50" height="20" as="geometry" />
        </mxCell>
        <mxCell id="SQnH5C2QO_s_aApPNkvD-19" value="user" style="text;html=1;align=center;verticalAlign=middle;resizable=0;points=[];autosize=1;strokeColor=none;fillColor=none;" vertex="1" parent="1">
          <mxGeometry x="272.03" y="55" width="40" height="20" as="geometry" />
        </mxCell>
        <mxCell id="SQnH5C2QO_s_aApPNkvD-20" value="uio driver" style="rounded=1;whiteSpace=wrap;html=1;" vertex="1" parent="1">
          <mxGeometry x="497.13" y="225" width="92" height="30" as="geometry" />
        </mxCell>
        <mxCell id="SQnH5C2QO_s_aApPNkvD-22" value="iwarp driver" style="rounded=1;whiteSpace=wrap;html=1;" vertex="1" parent="1">
          <mxGeometry x="317.03" y="225" width="92" height="30" as="geometry" />
        </mxCell>
      </root>
    </mxGraphModel>
  </diagram>
</mxfile>
